<?xml version="1.0" encoding="utf-8"?>
<!-- Generator: Adobe Illustrator 26.5.0, SVG Export Plug-In . SVG Version: 6.00 Build 0)  -->
<svg version="1.1" xmlns="http://www.w3.org/2000/svg" xmlns:xlink="http://www.w3.org/1999/xlink" x="0px" y="0px"
	 viewBox="0 0 100 100" style="enable-background:new 0 0 100 100;" xml:space="preserve">
<style type="text/css">
	.st0{fill:#010101;}
</style>
<g id="Layer_4">
	<path class="st0" d="M12.47,12.34c19.97-5.99,42.01,3.26,56.74,16.89c7.26,6.72,13.01,15.97,11.46,26.24
		c-0.67,4.44-2.71,8.74-6.27,11.57c-2.17,1.72-5.2,3.12-7.9,1.79c-4.11-2.03-2-6.78,1.71-7.68c6.9-1.69,10.73,8.15,11.96,13.19
		c1.44,5.91,1.31,12.05,0.75,18.07c-0.16,1.71,2.53,1.71,2.68,0c0.64-7.21,0.6-14.67-1.77-21.59c-1.72-5.02-4.89-10.77-10.49-12.09
		c-4.09-0.97-9.2,1.72-9.75,6.14c-0.59,4.66,4.28,7.57,8.42,7.03c11.56-1.51,15-16.71,12.76-26.11
		c-3.12-13.07-15.41-22.59-26.62-28.7C42.76,9.8,26.94,6.34,12.15,11.18C11.41,11.42,11.72,12.56,12.47,12.34L12.47,12.34z"/>
</g>
<g id="Layer_3">
	<path class="st0" d="M73.67,82.7c2.65-0.92,5.28,7.61,5.82,8.99c0.47,1.17,0.99,2.58,2.55,2.51c1.67-0.07,2.66-2.37,3.43-3.5
		c1.89-2.79,3.86-5.53,5.62-8.4c0.86-1.4-1.22-2.52-2.16-1.26c-1.62,2.2-3.1,4.52-4.62,6.8c-0.34,0.5-1.75,3.33-2.44,3.19
		c-0.15-0.03-0.76-2.21-0.81-2.33c-1.13-2.7-3.62-7.44-6.87-7.92c-0.43-0.06-0.78,0.05-1.02,0.42c-0.1,0.15-0.2,0.3-0.3,0.45
		C72.52,82.16,73.08,82.9,73.67,82.7L73.67,82.7z"/>
</g>
<g id="Layer_2">
	<path class="st0" d="M11.37,9.83c-1.19-0.01-1.81,1.55-0.92,2.35c0.16,0.15,0.41,0.25,0.63,0.17c1-0.37,1.72-1.14,1.87-2.22
		c0.04-0.29-0.02-0.66-0.33-0.8c-1.89-0.85-3.34,1.17-3.75,2.81c-0.2,0.81-0.19,1.75,0.51,2.33c0.82,0.68,1.88,0.33,2.61-0.31
		c1.33-1.16,2.51-3.69,0.74-5.02c-1.73-1.29-3.71,0.74-3.98,2.42c-0.29,1.77,0.92,3.46,2.79,3.37c1.68-0.08,3.13-1.65,2.38-3.34
		c-0.8-1.8-3.33-2.1-4.35-0.34c-0.42,0.73-0.5,1.7-0.09,2.45c0.48,0.89,1.53,1.26,2.35,0.56c0.49-0.42,0.88-1.03,1.28-1.54
		c0.35-0.44,0.69-0.89,0.72-1.47c0.05-0.9-0.6-1.61-1.44-1.84c-0.9-0.25-1.87,0.03-2.46,0.76c-0.77,0.95-0.76,2.23-0.67,3.38
		c0.04,0.44,0.38,0.93,0.88,0.88c2.04-0.2,3.72-2,3.45-4.11c-0.06-0.44-0.37-0.95-0.9-0.9c-1.95,0.2-2.89,2.47-1.64,3.99
		c0.74,0.89,2-0.38,1.27-1.27c-0.21-0.26,0.03-0.89,0.37-0.93c-0.3-0.3-0.6-0.6-0.9-0.9c0.14,1.07-0.5,2.22-1.66,2.35
		c0.29,0.29,0.59,0.59,0.88,0.88c-0.06-0.63-0.31-2.47,0.7-2.48c0.4-0.01,0.35,0.06,0.23,0.32c-0.22,0.48-0.79,1.04-1.14,1.44
		c-0.12,0.11-0.08,0.12,0.14,0.02c-0.04-0.09-0.05-0.18-0.04-0.28c0.08-0.22,0.05-0.43,0.23-0.62c0.32-0.35,0.81-0.24,1.09,0.1
		c0.57,0.68-0.23,1.23-0.88,1.22c-0.89-0.02-1.15-0.96-0.93-1.7c0.12-0.42,0.41-0.88,0.82-1.07c0.56-0.25,0.79,0.21,0.72,0.72
		c-0.06,0.5-0.47,1.06-0.79,1.43c-0.27,0.32-0.91,0.92-0.84,0.14c0.07-0.72,0.79-2.54,1.73-2.16c-0.17-0.23-0.35-0.46-0.52-0.69
		c-0.06,0.6-0.45,0.99-0.97,1.23c0.26,0.03,0.52,0.07,0.79,0.1c-0.14-0.07-0.14-0.16,0-0.27C12.12,10.96,12.13,9.84,11.37,9.83
		L11.37,9.83z"/>
</g>
</svg>
