<?xml version="1.0" encoding="utf-8"?>
<!-- Generator: Adobe Illustrator 26.5.0, SVG Export Plug-In . SVG Version: 6.00 Build 0)  -->
<svg version="1.1" id="Layer_1" xmlns="http://www.w3.org/2000/svg" xmlns:xlink="http://www.w3.org/1999/xlink" x="0px" y="0px"
	 viewBox="0 0 100 100" style="enable-background:new 0 0 100 100;" xml:space="preserve">
<g id="Layer_2">
	<g>
		<path d="M80.37,59.33c-0.43,0.66,0.28,1.54,1.02,1.32c0.67-0.2,1.17-0.64,1.73-1.05c0.54-0.39,1.08-0.78,1.62-1.16
			c1.06-0.75,2.14-1.46,3.24-2.16c2.21-1.41,4.49-2.72,6.8-3.98c0.71-0.38,0.6-1.34,0-1.75c-2.35-1.59-4.58-3.34-6.7-5.23
			c-2.13-1.9-4.11-3.97-6.22-5.89c-0.41-0.37-1.11,0.11-0.8,0.61c0.07,0.11,0.14,0.22,0.21,0.32c-0.03,0.04-0.05,0.09-0.07,0.14
			c-0.21,0.69-0.24,1.44-0.31,2.15c-0.08,0.7-0.1,1.41-0.13,2.12c-0.02,0.38-0.03,0.76-0.04,1.13c-7.42,0.01-14.85,0.01-22.27,0.02
			c-0.61,0-1.23,0-1.84,0c0.76-1.06,1.53-2.1,2.33-3.13c0.53-0.69-0.61-1.54-1.2-0.93c-1.24,1.29-2.39,2.65-3.48,4.06
			c-1.48,0-2.96,0-4.44,0c0.96-1.48,1.89-2.96,2.8-4.47c0.3-0.5-0.45-1.12-0.83-0.64c-1.35,1.68-2.67,3.39-3.96,5.11
			c-4.09,0-8.18,0.01-12.26,0.01c-2.11,0-4.22,0.03-6.34,0.05c-2.09,0.02-4.23-0.07-6.31,0.16c-0.25-2.05-0.6-4.09-1.2-6.06
			c-0.15-0.48-0.75-0.58-1.09-0.34c-0.17-0.09-0.39-0.13-0.63-0.08c-4.81,1.02-9.31,3.06-13.35,5.85c-0.96,0.67-1.98,1.51-1.88,2.81
			C4.85,49.6,6,50.58,6.9,51.33c1.89,1.57,4.09,2.66,6.27,3.76c1.38,0.7,2.75,1.39,4.13,2.08c1.4,0.7,2.79,1.48,4.24,2.09
			c0.8,0.34,1.71-0.05,1.74-1c0.09-3.05,0.15-6.08-0.1-9.13c-0.04-0.49-0.08-0.98-0.13-1.47c1.76,0.19,3.56,0.14,5.33,0.17
			c1.91,0.03,3.82,0.05,5.72,0.08c3.82,0.05,7.63,0.05,11.45,0.07c0.24,0,0.49,0,0.73,0c-0.64,0.88-1.29,1.76-1.92,2.64
			c-0.78,1.1-1.82,2.23-2.29,3.51c-0.33,0.89,0.86,1.35,1.45,0.85c0.52-0.44,0.9-1.07,1.28-1.62c0.38-0.56,0.77-1.12,1.15-1.68
			c0.77-1.12,1.52-2.25,2.27-3.37c0.07-0.1,0.14-0.21,0.21-0.31c1.42,0.01,2.83,0.02,4.25,0.02c-0.64,0.91-1.24,1.85-1.82,2.8
			c-0.32,0.53-0.65,1.06-0.95,1.6c-0.33,0.58-0.79,1.25-0.78,1.93c0.01,0.69,0.81,1.23,1.43,0.82c0.57-0.37,0.84-1.01,1.16-1.58
			c0.31-0.54,0.6-1.08,0.91-1.62c0.62-1.07,1.29-2.12,1.96-3.16c0.17-0.26,0.34-0.52,0.51-0.78c4.44,0.03,8.88,0.05,13.32,0.08
			c4.07,0.02,8.15,0.05,12.22,0.07c0,0.31,0,0.62,0,0.92c0.02,1.41,0.06,2.82,0.14,4.23c0.09,1.47,0.08,3.05,0.47,4.47
			c0.05,0.17,0.13,0.31,0.23,0.41C81.08,58.54,80.66,58.87,80.37,59.33z M86.81,46.72c1.75,1.64,3.61,3.17,5.55,4.59
			c-1.87,1.03-3.7,2.12-5.49,3.27c-1.09,0.7-2.17,1.42-3.24,2.16c-0.17,0.12-0.34,0.23-0.5,0.35c0.01-1.24-0.21-2.51-0.3-3.74
			c-0.11-1.44-0.21-2.89-0.27-4.33c-0.06-1.41-0.13-2.82-0.17-4.24c-0.03-0.94,0-1.93-0.06-2.9C83.65,43.64,85.2,45.22,86.81,46.72z
			 M21.13,56.45c-0.61-0.3-1.23-0.58-1.84-0.88c-1.15-0.56-2.29-1.12-3.44-1.67c-2.03-0.98-4.11-1.9-6.03-3.09
			c-0.91-0.56-1.76-1.2-2.51-1.96c-0.2-0.2-0.58-0.5-0.48-0.81c0.1-0.34,0.6-0.64,0.87-0.84c1.77-1.32,3.71-2.43,5.71-3.37
			c2.25-1.05,4.63-1.83,7.06-2.36l0.03-0.01c0.25,2.59,0.58,5.17,0.68,7.78C21.27,51.63,21.29,54.05,21.13,56.45z"/>
	</g>
</g>
</svg>
