<?xml version="1.0" encoding="utf-8"?>
<!-- Generator: Adobe Illustrator 26.5.0, SVG Export Plug-In . SVG Version: 6.00 Build 0)  -->
<svg version="1.1" id="Layer_1" xmlns="http://www.w3.org/2000/svg" xmlns:xlink="http://www.w3.org/1999/xlink" x="0px" y="0px"
	 viewBox="0 0 100 100" style="enable-background:new 0 0 100 100;" xml:space="preserve">
<style type="text/css">
	.st0{fill:#010101;}
</style>
<g>
	<g>
		<g>
			<path class="st0" d="M70.28,48.18C63.95,60.26,57.54,72.3,50.69,84.09c0.85-0.01,1.7-0.02,2.55-0.03
				C45.42,72.6,38.51,60.51,32.42,48.05c-0.53,0.95-1.06,1.9-1.59,2.84c6.75,0.74,13.51,0.82,20.27,0.02
				c6.43-0.77,13.69-3.83,20.11-2.74c-0.43-1-0.87-2.01-1.31-3.01c-3.99,8.53-12.14,14.93-18.71,21.44
				c0.97,0.73,1.94,1.46,2.91,2.19c3.61-5.76,7.31-11.46,10.98-17.18c-1.03-0.58-2.05-1.15-3.08-1.73
				c-2.7,4.95-5.12,10.04-7.75,15.03c-0.83,1.58,1.36,2.69,2.36,1.32c3.3-4.5,6.14-9.22,8.49-14.27c-0.86,0.12-1.72,0.24-2.58,0.36
				c0.13,0.33,0.27,0.65,0.4,0.98c0.16,1.06,1.61,1.49,2.42,0.98c2.57-1.6,3.75-3.69,3.82-6.7c0.03-1.19-1.52-2.18-2.55-1.43
				c-3.27,2.4-4.9,5.5-4.78,9.6c0.03,1.11,1.09,1.88,2.16,1.61c4.22-1.11,6.29-4.8,5.47-9c-0.23-1.17-1.62-1.47-2.54-1.02
				c-3.9,1.92-5.91,5.48-8.04,9.11c-3.02,5.13-5.74,10.41-8.24,15.81c-0.96,2.07,2.08,3.83,3.13,1.75c0.58-1.15,1.16-2.3,1.73-3.46
				c1.01-2.03-2.04-3.77-3.09-1.73c-0.59,1.14-1.18,2.29-1.76,3.44c1.04,0.58,2.08,1.17,3.13,1.75c1.97-4.26,4.06-8.46,6.35-12.56
				c2.21-3.96,4.38-8.95,8.56-11.13c-0.85-0.34-1.69-0.68-2.54-1.02c0.35,2.66-0.68,4.26-3.07,4.79c0.72,0.54,1.44,1.07,2.16,1.61
				c-0.09-2.79,0.75-4.89,3.09-6.62c-0.85-0.48-1.7-0.95-2.55-1.43c-0.71,1.27-1.41,2.53-2.12,3.8c0.81,0.33,1.62,0.65,2.42,0.98
				c-0.21-1.26-0.39-1.5-1.28-2.41c-0.68-0.71-2.15-0.61-2.58,0.36c-2.24,5.11-4.86,9.94-8,14.55c0.79,0.44,1.57,0.88,2.36,1.32
				c2.78-4.9,5.76-9.69,8.47-14.63c1.1-2.01-1.85-3.62-3.08-1.73c-3.69,5.71-7.36,11.44-11.11,17.11c-1.17,1.77,1.46,3.59,2.91,2.19
				c7.06-6.82,14.88-13.32,19.7-22c0.63-1.14,0.02-2.73-1.3-3.01c-6.49-1.41-13.09,1.42-19.5,2.3c-7.27,1-14.62,1.15-21.94,0.65
				c-1.5-0.1-2.19,1.69-1.59,2.84c6.39,12.36,13.61,24.16,21.54,35.59c0.63,0.9,1.97,1,2.55-0.03c6.77-11.86,13.17-23.9,18.84-36.33
				C72.64,48,70.91,46.98,70.28,48.18L70.28,48.18z"/>
		</g>
	</g>
	<g>
		<g>
			<path class="st0" d="M49.99,70.24c2.39-3.25,4.75-6.52,7.03-9.84c-0.97-0.54-1.94-1.09-2.91-1.63
				c-1.07,2.44-6.85,12.96-1.27,13.5c2.64,0.25,5.17-3.68,6.55-5.27c2.78-3.23,5.28-6.67,7.59-10.24c-1.02-0.57-2.03-1.14-3.05-1.71
				c-2.68,5.63-7.46,9.85-9.8,15.68c-0.71,1.77,1.15,3.29,2.68,2.02c4.8-3.97,7.76-8.92,8.78-15.08c0.27-1.66-1.69-3-2.99-1.68
				c-4.62,4.69-6.05,11.41-10.73,16c1.03,0.41,2.06,0.83,3.09,1.24c0.37-4.76,0.77-9.52,1.18-14.28c0.2-2.38-3.43-2.25-3.69,0.07
				c-0.67,6.12-1.33,12.24-1.99,18.36c1.28-0.02,2.57-0.05,3.85-0.07c-0.54-3.74-1.08-7.48-1.63-11.22
				c-0.36-2.47-3.7-2.49-3.91,0.07c-0.41,5.01-0.26,9.94,0.45,14.92c0.26,1.84,2.65,2.78,3.71,0.93c1.82-3.16,3.63-6.32,5.44-9.49
				c-1.22-0.48-2.44-0.96-3.65-1.44c-1.03,3.95-2.47,7.64-4.43,11.22c1.18,0.14,2.36,0.28,3.54,0.42c-1.15-3.7-2.3-7.39-3.46-11.09
				c-0.63-2.03-4.08-1.73-3.84,0.57c0.17,1.66,0.34,3.33,0.51,4.99c1.29-0.19,2.58-0.38,3.87-0.57c-2.33-6.26-5.3-12.12-9.03-17.66
				c-1.45-2.14-4.72-0.26-3.48,2.04c2.29,4.22,5.07,7.98,8.4,11.43c1.51,1.56,3.75-0.12,3.39-2c-0.92-4.81-2.16-9.5-3.72-14.13
				c-1.14,0.67-2.27,1.34-3.41,2.01c2.59,2.42,5.17,4.85,7.76,7.27c1.42,1.33,4.13,0.01,3.42-2.02c-0.72-2.06-3.25-6.99-2.16-8.1
				c1.13-1.15,8.99,1.39,10.7,1.86c0.15-1.36,0.31-2.71,0.46-4.07c-4.72-0.07-9.44-0.13-14.16-0.2c-2.66-0.04-2.59,4.07,0.07,4.13
				c7.73,0.17,15.02-1.78,21.63-5.77c2.02-1.22,0.68-4.4-1.61-3.79c-6.32,1.7-12.66,3.26-19.05,4.67c-2.31,0.51-1.75,4.19,0.6,4.08
				c5.09-0.23,14.3-0.07,16.64-5.67c0.61-1.46-0.15-3.07-1.86-3.11c-7.34-0.16-13.62,4.14-20.86,4.49c0.2,1.37,0.4,2.73,0.6,4.1
				c6.36-1.03,12.73-2.05,19.09-3.08c2.33-0.38,1.76-4.36-0.6-4.11c-4.07,0.43-8.09,1.08-12.05,2.14c-2.89,0.77-7.46,1.51-9.73,3.64
				c-4.9,4.58,6.56,10.36,9.42,11.91c1.77,0.96,3.89-1.07,2.8-2.86c-2.94-4.81-6.7-8.58-11.49-11.56c-1.49-0.93-3.65,0.69-3.04,2.4
				c1.47,4.15,2.92,8.3,4.26,12.49c1.17-0.69,2.35-1.38,3.52-2.08c-1.74-1.54-3.27-3.19-4.44-5.22c-0.66-1.13-1.2-2.32-1.61-3.57
				c-2.39-0.1-2.36,0.13,0.07,0.68c4.37,2.26,10.03,3.25,14.72,4.76c2.27,0.73,3.79-2.97,1.56-3.95c-4.95-2.17-9.98-3.67-15.33-4.43
				c-1.9-0.27-3.79,2.09-2.03,3.62c2.94,2.56,16.57,9.84,16.54,0.81c-0.02-7.72-16.57-7.07-21.38-6.97
				c-1.63,0.03-2.68,1.87-1.84,3.28c1.73,2.91,3.73,4.95,6.53,6.82c1.96,1.31,3.81-1.24,2.96-3.01c-1.67-3.44-3.42-6.6-6.25-9.21
				c-1.61-1.49-4.21,0-3.66,2.16c0.94,3.66,2.17,7.13,3.67,10.59c1.27-0.74,2.53-1.49,3.8-2.23c-1.23-2.69-2.47-5.37-3.7-8.06
				c-1.19-2.6-4.96-0.32-3.81,2.24c0.22,0.48,0.43,0.96,0.65,1.45c1.16,2.6,4.97,0.33,3.82-2.24c-0.22-0.48-0.43-0.96-0.65-1.44
				c-1.27,0.75-2.54,1.49-3.81,2.24c1.24,2.68,2.48,5.37,3.71,8.05c1.2,2.6,4.92,0.32,3.8-2.23c-1.35-3.11-2.4-6.27-3.25-9.54
				c-1.22,0.72-2.44,1.44-3.66,2.16c2.55,2.35,4.06,5.22,5.56,8.3c0.99-1,1.97-2.01,2.96-3.01c-2.15-1.43-3.61-3.03-4.91-5.22
				c-0.61,1.09-1.23,2.19-1.84,3.28c4.17-0.09,8.27,0.17,12.37,1c0.85,0.16,1.7,0.35,2.54,0.57c1.54,1.16,1.52,1.46-0.06,0.9
				c-2.28,0.32-5.51-2.37-7.06-3.72c-0.68,1.21-1.35,2.41-2.03,3.62c4.97,0.7,9.67,1.97,14.27,3.99c0.52-1.32,1.04-2.63,1.56-3.95
				c-4.91-1.58-9.8-3.23-14.73-4.75c-1.8-0.55-3.93-1.47-5.26,0.46c-2.91,4.22,4.44,12.34,7.24,14.8c1.5,1.32,4.21,0.05,3.52-2.08
				c-1.36-4.19-2.82-8.33-4.3-12.47c-1.01,0.8-2.03,1.6-3.04,2.4c4.23,2.61,7.36,5.77,9.96,10c0.93-0.95,1.87-1.9,2.8-2.86
				c-2.39-1.29-8-3.79-8.5-6.66c-0.18,0.68-0.35,1.36-0.53,2.04c1.6-2.08,6.86-2.87,9.26-3.48c3.35-0.85,6.74-1.42,10.18-1.78
				c-0.2-1.37-0.4-2.74-0.6-4.11c-6.36,1.03-12.73,2.06-19.09,3.09c-2.35,0.38-1.74,4.22,0.6,4.1c7.23-0.35,13.61-4.65,20.86-4.49
				c-0.62-1.04-1.24-2.07-1.86-3.11c-1.51,3.62-10.08,3.41-13.08,3.55c0.2,1.36,0.4,2.72,0.6,4.08c6.39-1.42,12.73-2.98,19.05-4.68
				c-0.54-1.26-1.07-2.52-1.61-3.79c-6.05,3.65-12.54,5.37-19.61,5.21c0.02,1.38,0.05,2.76,0.07,4.13c4.72,0.07,9.44,0.13,14.16,0.2
				c2.38,0.03,2.68-3.46,0.46-4.07c-3.64-0.99-11.66-3.75-15.13-1.17c-3.67,2.72,0.58,9.52,1.64,12.54
				c1.14-0.67,2.28-1.35,3.42-2.02c-2.59-2.42-5.18-4.84-7.77-7.26c-1.42-1.33-4.09-0.01-3.41,2.01c1.58,4.63,2.82,9.32,3.75,14.13
				c1.13-0.67,2.26-1.33,3.39-2c-3.12-3.22-5.64-6.66-7.79-10.58c-1.16,0.68-2.32,1.36-3.48,2.04c3.57,5.24,6.48,10.75,8.72,16.69
				c0.73,1.93,4.12,1.82,3.87-0.57c-0.18-1.66-0.35-3.33-0.53-4.99c-1.28,0.19-2.56,0.38-3.84,0.57c1.17,3.69,2.34,7.38,3.51,11.08
				c0.5,1.57,2.72,1.93,3.54,0.42c2.15-3.9,3.77-7.86,4.91-12.16c0.58-2.18-2.54-3.37-3.65-1.44c-1.82,3.16-3.63,6.32-5.44,9.48
				c1.24,0.31,2.48,0.62,3.71,0.93c-0.72-4.97-0.89-9.91-0.5-14.92c-1.28,0.19-2.56,0.38-3.84,0.57c0.56,3.74,1.13,7.47,1.69,11.21
				c0.35,2.35,3.58,1.41,3.78-0.56c0.62-6.12,1.22-12.24,1.82-18.36c-1.23,0.02-2.46,0.04-3.69,0.07c-0.35,4.76-0.71,9.52-1.1,14.28
				c-0.13,1.62,2.06,2.24,3.09,1.24c4.73-4.61,6.17-11.3,10.69-16.04c-1-0.56-2-1.12-2.99-1.68c-0.84,5.57-3.31,10.03-7.73,13.55
				c0.89,0.67,1.79,1.35,2.68,2.02c2.47-5.74,7.3-9.94,9.89-15.63c0.92-2.03-1.85-3.64-3.05-1.71c-2.25,3.61-4.68,7.07-7.44,10.32
				c-0.56,0.67-1.14,1.34-1.74,1.99c-0.71,0.76-0.82,0.65-0.34-0.3c0.03-2.1,1.77-4.76,2.6-6.65c0.86-1.94-1.76-3.48-2.91-1.63
				c-2.11,3.41-4.22,6.82-6.39,10.2C46.8,70.4,49.03,71.55,49.99,70.24L49.99,70.24z"/>
		</g>
	</g>
	<g>
		<g>
			<path class="st0" d="M39.76,54.6c0.75-0.24,1.1-0.65,1.7-1.09c1.06-0.79,1.87-0.62,3.26-0.43c2.23,0.3,4.95,0.26,7.07,1.06
				c-0.42-0.31-0.84-0.63-1.26-0.94c-0.06-0.23-0.13-0.46-0.19-0.69c-0.01,0.78,0.6,1.49,1.34,1.68c0.04,0.01,0.08,0.02,0.12,0.03
				c0.63,0.16,1.36-0.04,1.82-0.51c0.03-0.04,0.07-0.07,0.1-0.11c0.65-0.68,0.73-1.63,0.31-2.45c-0.65-1.26-1.82-1.32-3.08-1.45
				c-1.92-0.2-3.85-0.37-5.78-0.5c-1.41-0.09-3.1-0.44-4.34,0.42c-1.2,0.83-0.71,2.44-1.8,3.22C38.18,53.44,38.64,54.96,39.76,54.6
				L39.76,54.6z"/>
		</g>
	</g>
	<g>
		<g>
			<path class="st0" d="M51.88,50.26c1.89-5.13,2.34-11.25,2.78-16.68c0.41-5.04,0.74-10.77-1.36-15.47
				c-0.73-1.63-3.2-0.69-3.18,0.9c0.05,5.18,1.26,10.21,1.06,15.46c-0.19,5.18-1.56,10.39-1.45,15.56
				C49.76,51.33,51.47,51.37,51.88,50.26L51.88,50.26z"/>
		</g>
	</g>
</g>
</svg>
